<?xml version="1.0" encoding="UTF-8"?>
<svg xmlns="http://www.w3.org/2000/svg" version="1.1" viewBox="0 0 1000 1000">
  <defs>
    <style>
      .cls-1 {
        fill: #fbfbfb;
      }

      .cls-2 {
        fill: #0800ea;
      }
    </style>
  </defs>
  <!-- Generator: Adobe Illustrator 28.7.10, SVG Export Plug-In . SVG Version: 1.2.0 Build 236)  -->
  <g>
    <g id="Layer_1">
      <g>
        <path class="cls-2" d="M124.74,553.64c0-12.99-.32-26,.09-38.98.44-14.08,1.16-28.15,2.16-42.21.68-9.6,1.38-19.2,2.28-28.77,1.33-14.28,3.05-28.51,4.99-42.72,1.46-10.72,3.13-21.41,5-32.06,2.35-13.35,5.09-26.64,8.22-39.85,2.4-10.1,4.9-20.18,7.74-30.17,3-10.56,6.2-21.05,9.78-31.44,3.44-9.98,7.09-19.88,11.06-29.66,4.26-10.49,8.91-20.82,13.91-30.98,7.29-14.81,15.43-29.13,24.44-42.95,3.89-5.97,8-11.8,12.19-17.56,2.18-2.99,5.93-3.67,9.07-5.11,12.86-5.89,25.76-11.69,38.75-17.3,10.15-4.38,20.42-8.48,30.66-12.64,8.03-3.26,16.04-6.57,24.15-9.61,10.19-3.82,20.48-7.38,30.72-11.07,10.48-3.78,21.08-7.24,31.49-11.23,10.98-4.21,21.79-8.82,32.55-13.56,10.9-4.8,21.6-10.04,32.26-15.37,11.89-5.94,23.66-12.13,35.22-18.69,9.09-5.16,18.39-9.99,27.09-15.81.88-.59,1.66-.57,2.57-.03,15.27,9.07,30.61,18.04,45.83,27.21,17.5,10.54,34.86,21.32,51.97,32.49,14.81,9.67,29.56,19.42,43.85,29.84,15.21,11.09,30.36,22.27,43.4,35.96,8.91,9.35,16.43,19.83,23.94,30.29,15.58,21.7,30.26,44,44.7,66.47,13.98,21.74,27.64,43.68,41.1,65.75,11.71,19.22,23.21,38.56,34.43,58.07,7.83,13.62,15.34,27.41,22.5,41.4,3.76,7.35,2.64,14.62,1.09,22.05-2.18,10.42-5.07,20.66-8.11,30.85-3.18,10.69-6.67,21.28-9.82,31.98-2.66,9.05-5.68,17.99-8.2,27.09-3.46,12.47-6.28,25.1-9.54,37.61-3.17,12.13-5.37,24.47-6.86,36.94-1.75,14.61-2.87,29.27-2.42,43.98.42,13.48,1.46,26.93,4.1,40.2.45,2.25.36,4.41-.07,6.64-2.27,11.64-5.2,23.12-8.69,34.44-4.78,15.5-10.5,30.66-17.03,45.52-8.99,20.47-19.47,40.15-31.61,58.92-9.85,15.23-20.63,29.78-32.34,43.66-6.77,8.03-14.01,15.61-21.33,23.11-10.03,10.27-20.76,19.82-31.93,28.85-12.24,9.88-25.01,19.02-38.27,27.47-10.21,6.5-20.75,12.46-31.5,18.03-12.57,6.51-25.47,12.29-38.55,17.7-4.9,2.02-10.01,3.49-14.78,5.86-.89.44-2.03.42-3.1-.45-15.86-12.89-31.75-25.74-47.66-38.56-15.84-12.77-31.68-25.55-47.59-38.24-24.84-19.81-49.75-39.54-74.61-59.32-21.17-16.84-42.48-33.5-63.96-49.94-3.13-2.4-6.37-4.67-9.4-7.19-2.79-2.32-6.19-2.93-9.49-3.69-12.62-2.93-25.28-5.68-37.92-8.52-14.24-3.2-28.48-6.39-42.71-9.62-7.61-1.73-15.21-3.56-22.82-5.29-7.7-1.74-15.42-3.39-23.13-5.12-6.95-1.56-13.89-3.15-20.83-4.74-7.44-1.71-14.87-3.5-22.33-5.11-2.06-.44-3.17-1.26-3.46-3.43-1.75-13.45-3.62-26.89-5.17-40.37-1.48-12.88-2.44-25.82-3.85-38.7-.83-7.51-1.23-15.07-1.67-22.62-.89-15.18-1.86-30.36-2.44-45.55-.4-10.66-.2-21.34-.25-32.01-.02-4.04,0-8.09,0-12.13h.13ZM842.89,417.24c0-1.46.04-2.93,0-4.39-.2-7.19-2.64-12.97-9.59-16.33-2.99-1.44-5.7-3.51-8.39-5.49-11.72-8.64-22.33-18.55-32.64-28.81-15.8-15.72-30.48-32.45-45.1-49.24-9.49-10.9-19.68-21.14-30.23-31.03-10.66-10.01-21.79-19.45-33.2-28.58-17.85-14.27-36.45-27.5-55.65-39.89-1.56-1.01-2.89-1.09-4.53-.19-9.48,5.19-18.96,10.41-28.53,15.44-14.44,7.58-29.04,14.84-43.89,21.59-8.43,3.83-16.92,7.54-25.53,10.98-12.21,4.87-24.48,9.63-37.35,12.33-10.03,2.1-19,6.3-27.64,11.51-16.2,9.76-30.61,21.82-44.33,34.73-11.78,11.09-22.87,22.83-33.36,35.17-12.88,15.13-24.77,31-35.71,47.56-12.56,18.99-23.75,38.8-33.67,59.3-6.62,13.67-12.55,27.64-17.89,41.85-4.14,11-7.72,22.19-11.08,33.46-3.76,12.6-6.96,25.33-9.6,38.18-2.76,13.45-4.92,27.01-6.57,40.66-1.73,14.35-2.74,28.74-3.29,43.15-.52,13.58-.24,27.17.42,40.75.1,2.02,1.18,2.92,2.72,3.63,2.88,1.34,5.75,2.68,8.66,3.95,8.41,3.67,16.99,6.9,25.75,9.65,7.61,2.39,15.27,4.55,23.05,6.36,9.7,2.26,19.44,4.29,29.33,5.47,2.51.3,4.8.81,6.76,2.7,2.53,2.44,5.4,4.51,8.08,6.8,15.03,12.81,30.42,25.19,45.73,37.66,19.77,16.11,39.55,32.22,59.31,48.33,14.51,11.83,29,23.69,43.52,35.51,14.38,11.71,28.79,23.39,43.18,35.1,11.19,9.1,22.36,18.22,33.53,27.36,1.19.97,2.15,1.07,3.69.39,10.69-4.72,21.03-10.13,31.25-15.73,16.12-8.83,31.72-18.54,46.76-29.14,15.82-11.16,30.89-23.26,44.87-36.65,12.75-12.22,24.21-25.55,34.26-40.11,12.04-17.44,20.27-36.56,25.83-56.92,2.31-8.45,4.55-16.9,6.47-25.45,1.9-8.46,3.59-16.97,4.9-25.54,2.08-13.66,3.68-27.39,4.95-41.17,1.42-15.39,2.35-30.83,3.82-46.21,1.21-12.57,2.34-25.12,4.51-37.58.56-3.2,1.29-6.39,1.68-9.6.42-3.51,1.32-6.92,2.13-10.29,1.51-6.3,3.1-12.6,5.14-18.77,2.93-8.88,5.64-17.83,8.32-26.78,3.24-10.85,6.49-21.7,9.49-32.62,2.52-9.18,4.76-18.43,6.59-27.79,1.64-8.36,3.02-16.73,3.07-25.27Z"/>
        <path d="M842.89,417.24c-.06,8.54-1.44,16.91-3.07,25.27-1.83,9.35-4.07,18.61-6.59,27.79-3,10.92-6.24,21.77-9.49,32.62-2.68,8.96-5.39,17.91-8.32,26.78-2.04,6.18-3.63,12.48-5.14,18.77-.81,3.37-1.71,6.78-2.13,10.29-.39,3.21-1.12,6.4-1.68,9.6-2.16,12.46-3.3,25.01-4.51,37.58-1.48,15.39-2.41,30.82-3.82,46.21-1.27,13.78-2.86,27.5-4.95,41.17-1.31,8.56-3,17.07-4.9,25.54-1.92,8.55-4.17,17-6.47,25.45-5.56,20.36-13.79,39.48-25.83,56.92-10.05,14.56-21.51,27.89-34.26,40.11-13.98,13.4-29.05,25.49-44.87,36.65-15.03,10.6-30.63,20.31-46.76,29.14-10.23,5.6-20.57,11.02-31.25,15.73-1.53.68-2.5.58-3.69-.39-11.16-9.13-22.34-18.25-33.53-27.36-14.39-11.71-28.79-23.39-43.18-35.1-14.52-11.82-29.01-23.68-43.52-35.51-19.77-16.12-39.54-32.22-59.31-48.33-15.31-12.48-30.7-24.85-45.73-37.66-2.68-2.28-5.55-4.36-8.08-6.8-1.97-1.9-4.26-2.4-6.76-2.7-9.9-1.18-19.63-3.21-29.33-5.47-7.78-1.81-15.44-3.97-23.05-6.36-8.76-2.75-17.34-5.98-25.75-9.65-2.91-1.27-5.78-2.61-8.66-3.95-1.54-.72-2.62-1.61-2.72-3.63-.65-13.58-.93-27.17-.42-40.75.55-14.42,1.56-28.8,3.29-43.15,1.65-13.66,3.81-27.21,6.57-40.66,2.64-12.86,5.84-25.59,9.6-38.18,3.36-11.27,6.94-22.46,11.08-33.46,5.34-14.21,11.28-28.18,17.89-41.85,9.93-20.51,21.11-40.31,33.67-59.3,10.95-16.55,22.84-32.42,35.71-47.56,10.49-12.33,21.59-24.08,33.36-35.17,13.72-12.91,28.13-24.97,44.33-34.73,8.64-5.21,17.61-9.4,27.64-11.51,12.87-2.7,25.14-7.46,37.35-12.33,8.61-3.44,17.1-7.15,25.53-10.98,14.85-6.75,29.45-14.01,43.89-21.59,9.57-5.03,19.04-10.24,28.53-15.44,1.64-.9,2.97-.81,4.53.19,19.2,12.39,37.8,25.62,55.65,39.89,11.41,9.12,22.54,18.57,33.2,28.58,10.55,9.9,20.73,20.13,30.23,31.03,14.62,16.79,29.31,33.52,45.1,49.24,10.31,10.26,20.92,20.17,32.64,28.81,2.69,1.98,5.41,4.05,8.39,5.49,6.94,3.36,9.39,9.13,9.59,16.33.04,1.46,0,2.92,0,4.39ZM659.05,677.63c-.35.33-.71.65-1.06.98-3.72.55-7.47.09-11.21.27-5.84-.11-11.69-.22-17.53-.33-2.31-.09-4.62-.18-6.93-.26-1.11-.11-2.23-.22-3.34-.32-2.98-.2-5.95-.4-8.93-.6-2.03-.11-4.05-.22-6.08-.34-3.87-.39-7.74-.77-11.61-1.16-1.81-.15-3.61-.3-5.42-.44-3.02-.36-6.04-.73-9.06-1.09-1.62-.16-3.24-.31-4.86-.47-1.38-.23-2.76-.45-4.13-.68-.99-.12-1.98-.25-2.97-.37l-.57-.04c-1.6.02-3.18-.08-4.72-.57-1.03-.19-2.05-.38-3.08-.58-1.02-.12-2.04-.25-3.06-.37-.3-.03-.59-.05-.89-.08-1.09-.17-2.17-.34-3.26-.52-.9-.19-1.81-.37-2.71-.56-.96-.12-1.91-.23-2.87-.35-.19-.03-.39-.05-.58-.08-.94-.05-1.58-.56-2.04-1.34l-.02-.08c-.36-.95-.72-1.9-1.09-2.85-.06-.08-.11-.16-.15-.25l-.9-2.75c-.26-.81-.51-1.61-.77-2.42-.26-1.1-.52-2.19-.77-3.29-.3-1.15-.61-2.3-.91-3.46-.19-1.23-.39-2.47-.58-3.7-.32-1.5-.64-3.01-.96-4.51-.17-1.47-.34-2.93-.51-4.4-.37-2.65-.74-5.31-1.12-7.96l-.37-5.07c-.21-2.11-.42-4.22-.62-6.33l-.36-4.14c-.08-1.52-.15-3.04-.23-4.56,0-1.24-.02-2.48-.02-3.73-.29-.64.15-1.98-1.38-1.43-.77,1.17-1.54,2.34-2.31,3.51,0,0-.05.05-.05.05-.87,1.55-1.73,3.1-2.6,4.65l-.02.05c-.56,1.1-1.11,2.2-1.67,3.3-.05.15-.13.29-.23.42-.39.49-.77.99-1.16,1.48-5.46,12.02-9.36,24.58-12.68,37.32-.56,2.14-1.25,2.07-2.71.79-7.22-6.35-14.46-12.68-21.74-18.96-3.17-2.73-5.71-5.71-6.8-9.97-.63-2.49-1.14-5-1.7-7.5-1.37-6.07-1.39-12.23-1.12-18.4.04-.91.59-2.14-.42-2.58-1.06-.46-1.49.87-2.11,1.51-.29.3-.43.74-.64,1.11-3.36,6.19-6.12,12.56-7.68,19.51-2.2,9.85-1.3,19.22,2.97,28.3,3.64,7.75,9.13,14.03,15.53,19.65,7.34,6.45,15.62,11.46,24.23,15.88,5.76,2.96,11.98,4.91,18.26,6.66,8.27,2.31,16.7,3.8,25.13,5.19,8.02,1.33,16.16,2.19,24.28,2.61,15.08.79,30.14,2.11,45.28,1.85,15.31-.27,30.45-1.63,45.31-5.54,6.65-1.75,13.02-4.03,18.91-7.65,7.93-4.88,11-12.39,11.88-21.17.06-1.44.13-2.88.19-4.32.07.04.15.11.22.11.07,0,.22-.07.21-.1-.21-2.82.28-5.65-.24-8.46-.09-1.42-.18-2.84-.27-4.27-.34-2.15-.11-4.41-1.15-6.43-.15-1.27-.31-2.53-.46-3.8-.55-1.7-1.1-3.4-1.79-5.52-1.49,2.04-.93,3.83-1.02,5.51.01,1.97.03,3.94-.49,5.87-.2,1.12-.4,2.23-.6,3.35-.15,1.06-.3,2.12-.46,3.18-.04.06-.06.14-.03.23-.22.86-.44,1.72-.67,2.58-.48,1.96-1.23,3.8-2.25,5.54-.38.57-.75,1.13-1.13,1.7l-.03.08c-1.34,3.11-3.3,5.85-5.14,8.66l-.04.05c-.51.85-.62,2.05-1.92,2.21l-.35-.63c-.14-1.94.12-3.86.39-5.77.63-7.9.68-15.8.01-23.7-.16-2.32-.31-4.64-.47-6.96-.33-2.5-.67-5.01-1-7.51-.19-1.6-.39-3.21-.58-4.81-.43-2.24-.66-4.55-2.1-6.64-.69,1.37-.79,2.61-.71,3.88-.04,1.49-.06,2.99-.53,4.43l-.89,3.99c-.11,1.28-.23,2.56-.78,3.74-.09.28-.19.55-.28.83-.21.82-.42,1.65-.63,2.47,0,0,0,.04,0,.04-.22.76-.45,1.52-.67,2.28l-.36.92c-.17.81-.35,1.62-.52,2.43,0,0,0,.05,0,.05-.26.81-.52,1.62-.78,2.43-.05.11-.1.21-.16.31-.24.9-.47,1.81-.71,2.71-.27.63-.53,1.26-.8,1.89l-.71,2.73c-.28.65-.56,1.3-.83,1.94-.27.89-.54,1.78-.82,2.68l-.72,1.55c-.27.86-.54,1.71-.81,2.57-.59,1.47-1.17,2.95-1.76,4.42-.47,1.27-.63,2.67-1.52,3.78-.35.96-.7,1.93-1.05,2.89-.43,1.01-.85,2.02-1.28,3.03l.02-.02ZM481.41,591.6c.67-.73.92-.94,1.1-1.2,8.89-12.14,18.18-23.97,28.23-35.18,8.22-9.17,16.85-17.93,26.7-25.39.64-.49,1.25-1.37,2.23-.9.76.36.55,1.18.56,1.85.16,14.46.84,28.89,2.75,43.24,1.12,8.36,2.82,16.59,5.97,24.46.27.66.55,1.36,1.34,1.39.99.04,1.16-.83,1.45-1.55.7-1.75,1.43-3.49,2.17-5.23,4.21-9.76,8.44-19.52,12.64-29.28,2-4.65,3.97-9.31,5.95-13.97.21-.48.44-1,1.06-.95.61.05.81.59.93,1.09.15.58.23,1.18.3,1.78.57,4.44,1.16,8.87,1.67,13.31.21,1.8.91,2.81,2.91,2.83,1.97.02,3.94.31,5.91.54,16.32,1.87,32.64,3.84,49.09,4.16,7.84.15,5.8.57,8.87-5.88,1.73-3.64,3.21-7.39,4.84-11.08.3-.68.65-1.55,1.56-1.5.74.04.71.84.84,1.42,2.71,12.08,5.19,24.19,6.31,36.55.29,3.25.78,6.49.88,9.76.02.74-.05,1.79.84,1.96.84.16.85-.9,1.12-1.48,3.3-6.89,6.36-13.88,9.03-21.04,4.34-11.62,7.71-23.48,9.63-35.75.13-.8-.05-2.11.95-2.13,1.04-.03.81,1.29,1,2.07,2.1,8.86,4.17,17.73,6.27,26.59,2.26,9.53,4.51,19.06,6.84,28.57.77,3.12,1.11,6.37,2.5,9.63.85-1.84.93-3.45.93-5.07.02-5.25.13-10.5.03-15.74-.49-26.14-2.9-52-10.65-77.15-3.75-12.17-8.08-24.06-14.92-34.91-7.6-12.05-17.65-21.14-30.95-26.56-7.87-3.21-16.06-4.73-24.44-5.93-14.11-2.03-27.62-.03-40.69,5.17-15.91,6.34-29.39,16.27-41.06,28.72-18.11,19.31-30.19,42.23-39.54,66.71-4.72,12.35-8.54,25.02-11.6,37.89-.59,2.48-1.65,4.94-1.59,8.19ZM625.62,414.41c4.74.32,10.96-.65,17.07-2.11,9.16-2.19,17.52-6.43,25.88-10.62,6.22-3.12,12.49-6.2,19.25-7.86,12.2-2.99,24.4-2.74,36.34,1.4,5.45,1.89,10.2,4.97,13.29,10.07,1.32,2.17,1.97,2.29,3.43.2,3.28-4.69,4.16-9.95,3.15-15.49-2.02-11.15-5.88-21.74-11.36-31.6-8.07-14.51-18.47-18.46-33.28-16.07-7.29,1.18-14.29,3.69-21.31,5.95-11.43,3.69-22.72,7.77-34.52,10.29-12.72,2.72-25.43,2.93-38.18.63-14.62-2.64-28.28-8.27-42.02-13.64-8.16-3.19-16.43-6.06-25.01-7.88-11.87-2.52-23.88-2.96-35.94-1.7-8.01.84-15.4,3.43-21.91,8.23-11.31,8.33-16.82,19.96-18.45,33.54-1.01,8.45-.43,16.86,3.42,24.69.5,1.02.59,3,2.28,2.66,1.31-.26,1.04-2.01,1.32-3.12,2.07-8.33,6.56-14.88,14.12-19.1,9.39-5.25,19.48-4.95,29.64-3.36,6.71,1.05,13.21,3.05,19.7,5.03,10.02,3.07,19.75,6.86,29.21,11.36,7.59,3.61,15.07,7.48,22.82,10.69,12.59,5.21,25.84,7.54,41.06,7.8Z"/>
        <path class="cls-1" d="M481.41,591.6c-.06-3.25,1-5.71,1.59-8.19,3.06-12.87,6.88-25.54,11.6-37.89,9.35-24.48,21.44-47.4,39.54-66.71,11.67-12.45,25.15-22.38,41.06-28.72,13.07-5.21,26.58-7.2,40.69-5.17,8.37,1.2,16.56,2.72,24.44,5.93,13.3,5.43,23.35,14.51,30.95,26.56,6.84,10.85,11.17,22.74,14.92,34.91,7.75,25.15,10.17,51.01,10.65,77.15.1,5.25-.01,10.49-.03,15.74,0,1.62-.08,3.23-.93,5.07-1.39-3.26-1.73-6.51-2.5-9.63-2.33-9.51-4.58-19.04-6.84-28.57-2.1-8.86-4.17-17.73-6.27-26.59-.18-.78.04-2.1-1-2.07-1,.03-.83,1.33-.95,2.13-1.92,12.26-5.29,24.12-9.63,35.75-2.67,7.17-5.73,14.15-9.03,21.04-.28.58-.28,1.63-1.12,1.48-.89-.17-.82-1.22-.84-1.96-.09-3.27-.58-6.51-.88-9.76-1.12-12.36-3.6-24.47-6.31-36.55-.13-.58-.1-1.37-.84-1.42-.91-.05-1.26.82-1.56,1.5-1.63,3.68-3.11,7.44-4.84,11.08-3.06,6.45-1.03,6.04-8.87,5.88-16.45-.32-32.77-2.3-49.09-4.16-1.97-.23-3.94-.51-5.91-.54-2-.03-2.7-1.04-2.91-2.83-.52-4.44-1.11-8.88-1.67-13.31-.08-.6-.16-1.2-.3-1.78-.12-.5-.33-1.04-.93-1.09-.62-.05-.86.46-1.06.95-1.98,4.66-3.95,9.32-5.95,13.97-4.21,9.77-8.43,19.52-12.64,29.28-.75,1.73-1.47,3.48-2.17,5.23-.29.72-.45,1.59-1.45,1.55-.8-.03-1.08-.73-1.34-1.39-3.16-7.87-4.86-16.1-5.97-24.46-1.91-14.35-2.59-28.78-2.75-43.24,0-.66.19-1.49-.56-1.85-.99-.47-1.59.42-2.23.9-9.85,7.46-18.48,16.22-26.7,25.39-10.05,11.21-19.34,23.03-28.23,35.18-.19.26-.43.47-1.1,1.2ZM635.48,520.92c-.55-8.5-1.6-16.93-4.24-25.07-1.96-6.06-4.75-11.73-8.72-16.8-1.5-1.92-2.89-2.07-4.76-.76-2.05,1.43-3.99,2.98-5.71,4.79-9.93,10.46-14.89,23.47-18.91,36.94-1.08,3.63-.89,3.73,3.04,3.65,11.19-.22,22.34.27,33.35,2.34,6.3,1.18,6.26,1.38,5.95-5.09Z"/>
        <path class="cls-1" d="M625.62,414.41c-15.22-.26-28.47-2.59-41.06-7.8-7.75-3.21-15.23-7.08-22.82-10.69-9.46-4.5-19.19-8.29-29.21-11.36-6.5-1.99-12.99-3.98-19.7-5.03-10.16-1.59-20.25-1.89-29.64,3.36-7.57,4.23-12.05,10.77-14.12,19.1-.28,1.11,0,2.86-1.32,3.12-1.69.34-1.78-1.64-2.28-2.66-3.85-7.83-4.43-16.24-3.42-24.69,1.63-13.58,7.14-25.21,18.45-33.54,6.52-4.8,13.91-7.39,21.91-8.23,12.06-1.26,24.07-.83,35.94,1.7,8.58,1.82,16.85,4.69,25.01,7.88,13.74,5.37,27.41,11.01,42.02,13.64,12.75,2.3,25.46,2.09,38.18-.63,11.79-2.52,23.09-6.6,34.52-10.29,7.02-2.26,14.03-4.78,21.31-5.95,14.81-2.39,25.21,1.56,33.28,16.07,5.48,9.85,9.33,20.44,11.36,31.6,1,5.53.12,10.8-3.15,15.49-1.46,2.09-2.11,1.97-3.43-.2-3.1-5.1-7.84-8.18-13.29-10.07-11.94-4.14-24.14-4.39-36.34-1.4-6.76,1.66-13.03,4.74-19.25,7.86-8.36,4.19-16.72,8.44-25.88,10.62-6.11,1.46-12.33,2.43-17.07,2.11Z"/>
        <path class="cls-1" d="M661.36,671.72c.89-1.11,1.05-2.5,1.51-3.77.05.12.1.24.15.36.05-.05.13-.1.15-.17.49-1.54.98-3.08,1.46-4.62.27-.86.54-1.71.81-2.56-.07.27,0,.34.22.19.06-.04.11-.13.12-.2.09-.53.83-.9.39-1.55.27-.89.54-1.78.81-2.67-.11.26-.04.36.2.27.06-.02.12-.12.13-.19.1-.69,1.06-1.17.5-2.02.24-.91.47-1.82.71-2.72-.12.25-.05.36.19.29.06-.02.12-.11.14-.18.23-.65.76-1.23.47-2,.24-.9.47-1.81.71-2.7,0,.09.01.24-.02.25-.32.12.04.32.23.05.18-.26.67-.53.23-.96-.09.12-.18.24-.28.36.26-.81.52-1.62.78-2.43.12.02.25.05.38.07-.13-.04-.25-.08-.38-.11.17-.81.35-1.62.52-2.42,0,.09.04.23.02.23-.32.13,0,.34.19.07.26-.36.47-.78.56-1.21.04-.2-.25-.35-.41-.02.22-.76.45-1.52.67-2.28.12.02.25.04.38.05-.13-.03-.25-.06-.38-.1.21-.82.42-1.65.63-2.47-.02.09-.02.22-.06.23-.33.1-.03.37.16.11.26-.35.49-.77.57-1.2.04-.21-.26-.35-.39.02.55-1.19.67-2.46.78-3.73-.1.26-.05.34.15.23.05-.03.1-.12.1-.18,0-1.38,1.44-2.54.64-4.04.47-1.44.48-2.94.52-4.42,1.77.07,2.31,1.4,2.82,2.75.19,1.6.39,3.21.58,4.8-.07-.06-.14-.1-.21-.15-.03.06-.1.13-.09.18.29,2.52.6,5.04,1.31,7.49.16,2.32.31,4.64.47,6.95-.08-.03-.17-.05-.25-.07-.01.07-.04.14-.04.21.29,6.78.27,13.55.13,20.33-.02,1.07-.46,2.19.15,3.24-.27,1.91-.54,3.83-.39,5.76-.01-.26-.13-.33-.32-.18-.05.04-.08.16-.06.22.16.52-.3,1.2.32,1.57.17.1.69-.09.83-.3.23-.33-.02-.6-.41-.67,1.3-.17,1.41-1.36,1.92-2.21.08.02.16.03.24.04l-.21-.09c1.84-2.81,3.8-5.55,5.14-8.66.08.03.16.07.25.1-.07-.06-.14-.12-.21-.18.38-.57.75-1.13,1.13-1.69,0,.09,0,.18,0,.26.11-.1.26-.19.33-.32.98-1.71,1.94-3.43,1.92-5.49.22-.86.44-1.72.67-2.58.09.36.29.28.38.04.05-.15,0-.48-.34-.27.15-1.06.3-2.12.46-3.17.07.12.15.24.22.35.05-.05.13-.09.14-.14.18-1.18.94-2.33.25-3.57.52-1.93.5-3.9.5-5.86-.04.28.04.36.22.22.05-.04.07-.13.08-.2.09-.71-.29-1.76.8-1.85.95-.08,1.07.92,1.34,1.63.04.12-.1.82.37.2.15,1.27.31,2.53.46,3.79-.08-.02-.16-.04-.25-.05,0,.08-.02.17,0,.25.35,2.15.71,4.31,1.08,6.46,0,.03.2.03.31.04,0-.08.01-.17.02-.25.09,1.42.18,2.84.27,4.26-.07,2.81-.13,5.64-.2,8.46-.06,1.44-.13,2.88-.19,4.31.03-.28-.07-.36-.28-.21-.04.03-.02.15-.03.23-.32,1.6-.57,3.21-.97,4.79-1.34,5.23-3.38,9.96-7.8,13.55-8.16,6.62-17.95,9.21-27.81,11.38-12.19,2.69-24.64,3.75-37.12,3.88-15.05.16-30.06-.63-45.08-1.79-15.09-1.16-30.07-2.8-44.86-6.16-7.89-1.79-15.6-3.95-22.92-7.43-12.34-5.87-23.74-13.06-32.93-23.37-9.4-10.54-14.09-22.6-12-36.9.47-3.24,1.16-6.42,2.18-9.51,1.43-4.32,3.24-8.48,5.52-12.43.34-.58.68-1.3,1.56-.97.7.27.63.94.61,1.54-.26,7.61.8,15.08,2.75,22.4.78,2.94,1.33,6.27,3.68,8.39,8.81,7.93,17.81,15.65,26.69,23.5,1.25,1.1,1.74.65,2.11-.62.82-2.79,1.69-5.58,2.41-8.4,2.23-8.65,5.23-17.03,8.52-25.33.65-1.65,2.21-3.11,1.57-5.18.39-.49.77-.99,1.16-1.48-.03.08-.06.22-.07.22-.34-.04-.13.36.14.16.24-.18.75-.41.17-.81.56-1.1,1.11-2.2,1.67-3.3.08,0,.16.01.24.02-.07-.02-.15-.05-.22-.07.87-1.55,1.73-3.1,2.6-4.65.08.02.17.04.25.06-.07-.04-.13-.07-.2-.11.77-1.17,1.54-2.34,2.3-3.5.46.48.92.95,1.39,1.42,0,1.24.02,2.48.02,3.71-.09-.02-.17-.02-.26-.02,0,.08.02.16.02.25.03,1.54.02,3.08.1,4.61.02.44.26.19.36-.02.03-.07,0-.17,0-.25.12,1.38.24,2.76.36,4.14-.08-.05-.15-.08-.23-.12-.03.06-.08.12-.08.17.2,2.2.4,4.4.6,6.6.11-.02.23-.01.32-.07.04-.03.02-.16.02-.25.13,1.69.25,3.38.37,5.06-.08-.03-.16-.05-.24-.08,0,.07-.02.15-.02.22.25,2.64.34,5.32,1.38,7.82.17,1.47.34,2.93.51,4.39-.07-.06-.13-.12-.2-.17-.03.07-.11.14-.1.19.24,1.55.27,3.16,1.26,4.5.19,1.23.39,2.47.58,3.69-.15-.23-.25-.23-.3,0-.02.08-.04.17-.01.24.36,1.09.42,2.31,1.23,3.23.26,1.1.52,2.19.77,3.28-.1-.07-.21-.13-.31-.18-.03.06-.11.15-.09.19.38.81.78,1.62,1.17,2.42.3.92.6,1.84.9,2.75-.11-.11-.29-.31-.3-.31-.38.33,0,.63.15.79.28.31.39.11.31-.23.36.95.72,1.9,1.09,2.85-.05.08-.09.15-.14.23.05-.05.11-.1.16-.15.46.78,1.1,1.29,2.03,1.34-.08.01-.18,0-.22.05-.04.04-.02.2-.01.2.3.05.66.4.82-.17.96.12,1.91.23,2.86.35-.19.04-.49-.04-.36.33.02.05.15.08.23.07.97-.18,1.85,1.04,2.85.17,1.09.17,2.17.34,3.26.52-.09,0-.23.04-.24.02-.11-.33-.4.07-.09.19.39.16.89.47,1.23-.14,1.02.12,2.04.25,3.05.37-.17.1-.33.2-.49.29.07.04.15.12.21.11,1.13-.09,2.2,1.09,3.37.17,1.54.48,3.12.58,4.71.57-.08.02-.18.03-.22.08-.03.04,0,.14,0,.22.28-.03.72.41.8-.26.99.12,1.98.25,2.96.37-.16.1-.32.2-.47.31.07.04.15.1.22.11,1.46.08,2.88.97,4.39.27,1.62.16,3.24.31,4.85.47-.27-.04-.35.05-.24.23.03.05.12.08.19.08,3.07-.09,5.99,1.49,9.12.78,1.81.15,3.61.3,5.41.44-.09,0-.19,0-.26.03-.03.01,0,.19,0,.19,3.96.28,7.85,1.47,11.88.93,2.03.11,4.05.22,6.07.34-.22.02-.5,0-.25.34.03.04.16.02.25.01,2.99-.24,5.94,1.14,8.94.25,1.11.11,2.23.22,3.33.32-.18.15-.69-.25-.56.34,0,.03.14.06.22.06,2.43-.21,4.87.38,7.28-.14,5.84.11,11.69.22,17.52.33-.23.01-.47,0-.36.34.01.03.16.03.24.03,3.13-.01,6.26-.01,9.38-.04.69,0,1.43.04,1.95-.59.35-.33.71-.65,1.06-.98.14.05.27.1.41.15-.14-.04-.29-.09-.43-.13.43-1.01.85-2.02,1.28-3.02-.06.23-.17.53.23.2.06-.05.07-.16.08-.24.09-.99,1.02-1.77.75-2.86Z"/>
        <path class="cls-2" d="M523.35,620.88c.64,2.07-.92,3.54-1.57,5.18-3.29,8.3-6.29,16.68-8.52,25.33-.73,2.82-1.59,5.6-2.41,8.4-.37,1.27-.86,1.72-2.11.62-8.88-7.85-17.89-15.57-26.69-23.5-2.35-2.12-2.9-5.45-3.68-8.39-1.95-7.32-3.01-14.79-2.75-22.4.02-.59.09-1.27-.61-1.54-.88-.34-1.22.39-1.56.97-2.29,3.94-4.09,8.11-5.52,12.43-1.02,3.09-1.71,6.27-2.18,9.51-2.08,14.3,2.61,26.36,12,36.9,9.19,10.31,20.59,17.5,32.93,23.37,7.32,3.48,15.04,5.64,22.92,7.43,14.79,3.35,29.77,5,44.86,6.16,15.01,1.15,30.03,1.94,45.08,1.79,12.48-.13,24.93-1.19,37.12-3.88,9.86-2.17,19.65-4.77,27.81-11.38,4.43-3.59,6.46-8.32,7.8-13.55.4-1.58.65-3.19.97-4.79.02-.08-.01-.2.03-.23.21-.15.31-.07.28.21-.88,8.79-3.95,16.3-11.88,21.18-5.89,3.63-12.26,5.9-18.91,7.65-14.86,3.91-30,5.27-45.31,5.54-15.13.26-30.19-1.06-45.28-1.85-8.12-.43-16.26-1.28-24.28-2.61-8.43-1.39-16.86-2.88-25.13-5.19-6.29-1.76-12.5-3.71-18.26-6.66-8.61-4.42-16.89-9.43-24.23-15.88-6.4-5.62-11.89-11.9-15.53-19.65-4.26-9.08-5.17-18.46-2.97-28.3,1.56-6.95,4.32-13.32,7.68-19.51.21-.38.35-.82.64-1.11.62-.64,1.05-1.97,2.11-1.51,1.02.44.46,1.67.42,2.58-.27,6.17-.26,12.34,1.12,18.4.57,2.5,1.07,5.01,1.7,7.5,1.09,4.26,3.63,7.24,6.8,9.97,7.28,6.28,14.52,12.61,21.74,18.96,1.45,1.28,2.15,1.35,2.71-.79,3.31-12.75,7.22-25.3,12.68-37.32Z"/>
        <path class="cls-2" d="M680.49,669.27c-.61-1.05-.18-2.17-.15-3.24.14-6.78.16-13.56-.13-20.33,0-.07.03-.14.04-.21.08.02.17.04.25.07.67,7.91.62,15.81-.01,23.71Z"/>
        <path class="cls-2" d="M603.97,677.02c-4.03.54-7.92-.65-11.88-.93,0,0-.02-.18,0-.19.07-.04.17-.03.26-.03,3.88.39,7.75.77,11.62,1.16Z"/>
        <path class="cls-2" d="M657.99,678.61c-.52.63-1.26.58-1.95.59-3.13.03-6.26.03-9.38.04-.08,0-.23,0-.24-.03-.11-.33.13-.33.36-.34,3.74-.17,7.49.28,11.22-.27Z"/>
        <path class="cls-2" d="M697.72,665.18c.07-2.82.13-5.64.2-8.46.52,2.81.03,5.65.24,8.47,0,.03-.14.1-.21.1-.07,0-.15-.07-.22-.11Z"/>
        <path class="cls-2" d="M696.03,642.24c-.47.62-.33-.08-.37-.2-.26-.71-.39-1.71-1.34-1.63-1.1.09-.72,1.14-.8,1.85,0,.07-.03.16-.08.2-.18.14-.26.06-.22-.22.08-1.69-.47-3.48,1.02-5.52.69,2.12,1.24,3.82,1.79,5.52Z"/>
        <path class="cls-2" d="M678.44,626.3c-.51-1.35-1.05-2.68-2.82-2.75-.07-1.28.02-2.52.71-3.89,1.45,2.09,1.67,4.4,2.1,6.64Z"/>
        <path class="cls-2" d="M618.98,677.96c-3.01.89-5.95-.5-8.94-.25-.08,0-.22.03-.25-.01-.25-.33.03-.31.25-.34,2.99.2,5.96.4,8.94.6Z"/>
        <path class="cls-2" d="M586.95,675.42c-3.12.71-6.05-.87-9.12-.78-.06,0-.16-.03-.19-.08-.12-.19-.03-.27.24-.23,3.03.36,6.05.73,9.07,1.09Z"/>
        <path class="cls-2" d="M697.64,652.47c0,.08-.01.17-.02.25-.11-.01-.3,0-.31-.04-.37-2.15-.72-4.3-1.08-6.46-.01-.08,0-.17,0-.25.08.02.16.03.25.05,1.04,2.04.81,4.29,1.15,6.44Z"/>
        <path class="cls-2" d="M535.49,640.64c-1.04-2.51-1.13-5.18-1.38-7.82,0-.07.01-.15.02-.22.08.02.16.04.24.08.37,2.66.75,5.32,1.12,7.97Z"/>
        <path class="cls-2" d="M680.03,638.62c-.71-2.45-1.01-4.97-1.31-7.49,0-.06.06-.12.09-.18.07.05.14.1.21.15.34,2.51.67,5.02,1.01,7.52Z"/>
        <path class="cls-2" d="M629.25,678.55c-2.42.52-4.86-.08-7.28.14-.07,0-.21-.02-.22-.06-.13-.6.38-.2.56-.34,2.32.09,4.63.18,6.94.26Z"/>
        <path class="cls-2" d="M533.99,627.61c0,.09.02.22-.02.25-.09.05-.21.05-.32.07-.2-2.2-.4-4.4-.6-6.6,0-.05.05-.11.08-.17.08.04.15.07.23.12.21,2.12.42,4.23.63,6.34Z"/>
        <path class="cls-2" d="M690.96,657.43c.02,2.06-.94,3.78-1.92,5.49-.07.13-.22.21-.33.32,0-.08,0-.17,0-.26,1.02-1.74,1.77-3.59,2.25-5.55Z"/>
        <path class="cls-2" d="M533.01,617.13c0,.09.03.19,0,.25-.11.21-.34.46-.36.02-.08-1.54-.07-3.08-.1-4.61,0-.08-.01-.16-.02-.25.09,0,.17,0,.26.02.08,1.53.15,3.05.23,4.57Z"/>
        <path class="cls-2" d="M573.03,673.86c-1.51.71-2.93-.19-4.39-.27-.08,0-.15-.07-.22-.11.15-.1.31-.2.47-.31,1.39.23,2.77.45,4.14.68Z"/>
        <path class="cls-2" d="M536.96,649.55c-1-1.34-1.02-2.95-1.26-4.5,0-.06.06-.13.1-.19.07.05.13.11.2.17.32,1.51.64,3.02.96,4.52Z"/>
        <path class="cls-2" d="M664.63,663.53c-.49,1.54-.97,3.08-1.46,4.62-.02.06-.1.11-.15.17-.05-.12-.1-.23-.15-.36.59-1.48,1.17-2.95,1.76-4.43Z"/>
        <path class="cls-2" d="M675.1,627.97c.8,1.51-.64,2.66-.64,4.04,0,.06-.05.16-.1.18-.2.11-.25.03-.15-.23.3-1.34.59-2.67.89-4Z"/>
        <path class="cls-2" d="M692.72,648.1c.69,1.24-.07,2.39-.25,3.57,0,.05-.09.09-.14.14-.07-.11-.15-.23-.22-.35.2-1.12.4-2.24.6-3.36Z"/>
        <path class="cls-2" d="M560.63,672.21c-1.17.92-2.24-.26-3.37-.17-.07,0-.14-.07-.21-.11.16-.1.32-.2.49-.29,1.04.19,2.06.38,3.09.58Z"/>
        <path class="cls-2" d="M680.45,675.67c.39.07.64.35.41.67-.14.21-.66.4-.83.3-.62-.36-.16-1.05-.32-1.57-.02-.07,0-.19.06-.22.19-.15.3-.08.32.18.12.22.24.43.35.64Z"/>
        <path class="cls-2" d="M538.45,656.71c-.81-.92-.87-2.13-1.23-3.23-.02-.07,0-.16.01-.24.05-.23.16-.23.3,0,.31,1.16.61,2.31.91,3.46Z"/>
        <path class="cls-2" d="M550.34,670.67c-1,.88-1.89-.35-2.85-.17-.07.01-.21-.02-.23-.07-.13-.36.17-.29.36-.33.91.19,1.81.37,2.72.56Z"/>
        <path class="cls-2" d="M661.36,671.72c.27,1.09-.66,1.86-.75,2.86,0,.08-.02.19-.08.24-.39.33-.29.03-.23-.2.35-.97.71-1.93,1.06-2.9Z"/>
        <path class="cls-2" d="M540,662.42c-.39-.81-.79-1.61-1.17-2.42-.02-.04.06-.12.09-.19.1.06.2.12.31.18.26.82.52,1.62.78,2.43Z"/>
        <path class="cls-2" d="M667.81,654.79c.55.85-.4,1.33-.5,2.02-.01.07-.07.17-.13.19-.24.09-.31,0-.2-.27.28-.66.56-1.3.84-1.95Z"/>
        <path class="cls-2" d="M669.32,650.16c.29.77-.24,1.35-.47,2-.03.07-.08.17-.14.18-.24.07-.31-.04-.19-.29.27-.64.54-1.27.8-1.9Z"/>
        <path class="cls-2" d="M666.17,659.4c.44.66-.3,1.02-.39,1.55-.01.07-.06.16-.12.2-.21.15-.29.08-.22-.19.24-.53.48-1.04.72-1.56Z"/>
        <path class="cls-2" d="M532.76,608.85c-.47-.47-.93-.94-1.39-1.42,1.54-.56,1.1.78,1.39,1.42Z"/>
        <path class="cls-2" d="M671.85,641.32c.17-.34.46-.18.41.02-.09.43-.3.85-.56,1.21-.19.27-.51.05-.19-.07.02,0-.01-.15-.02-.23.12-.31.24-.62.36-.92Z"/>
        <path class="cls-2" d="M554.49,671.26c-.34.61-.83.3-1.23.14-.3-.12-.01-.52.09-.19,0,.02.15-.01.24-.02.3.03.6.05.89.08Z"/>
        <path class="cls-2" d="M673.43,635.7c.13-.37.43-.22.39-.02-.09.42-.31.85-.57,1.2-.2.26-.49,0-.16-.11.04-.01.04-.15.06-.23.1-.28.19-.56.29-.84Z"/>
        <path class="cls-2" d="M670.2,647.15c.09-.12.18-.24.28-.36.44.44-.05.7-.23.96-.19.27-.55.07-.23-.05.03-.01.01-.16.02-.25.06-.11.12-.21.17-.31Z"/>
        <path class="cls-2" d="M565.92,672.81c-.08.67-.52.23-.8.26,0-.07-.04-.17,0-.22.04-.05.14-.05.22-.08.2.01.39.02.58.03Z"/>
        <path class="cls-2" d="M524.74,618.98c.57.4.07.63-.17.81-.27.2-.48-.2-.14-.16.02,0,.05-.14.07-.22.11-.13.18-.27.24-.43Z"/>
        <path class="cls-2" d="M544.76,669.76c-.16.57-.53.23-.82.17-.01,0-.03-.17.01-.2.04-.04.14-.03.22-.05.2.03.39.05.58.08Z"/>
        <path class="cls-2" d="M541.04,665.42c.09.34-.03.54-.31.23-.15-.17-.52-.47-.15-.79,0,0,.2.2.3.31.04.1.09.18.15.26Z"/>
        <path class="cls-2" d="M691.66,654.62c.35-.21.4.13.34.27-.09.24-.28.32-.38-.04-.02-.1-.01-.17.03-.23Z"/>
        <path class="cls-2" d="M542.14,668.34c-.05.05-.11.1-.16.15.05-.08.09-.15.14-.23,0,0,.02.08.02.08Z"/>
        <path class="cls-2" d="M670.97,644.67c.13.04.25.08.38.11-.13-.02-.25-.05-.38-.07,0,0,0-.05,0-.05Z"/>
        <path class="cls-2" d="M672.52,639c.13.03.25.06.38.1-.13-.02-.25-.04-.38-.05,0,0,0-.04,0-.04Z"/>
        <path class="cls-2" d="M526.42,615.63c.07.02.15.05.22.07-.08,0-.16-.01-.24-.02,0,0,.02-.05.02-.05Z"/>
        <path class="cls-2" d="M529.07,610.94c.07.04.13.07.2.11-.08-.02-.17-.04-.25-.06,0,0,.05-.05.05-.05Z"/>
        <path class="cls-2" d="M659.03,677.64c.14.04.29.09.43.13-.14-.05-.27-.1-.41-.15,0,0-.02.01-.02.01Z"/>
        <path class="cls-2" d="M687.58,664.67c.07.06.14.12.21.18-.08-.03-.16-.07-.25-.1,0,0,.03-.08.03-.08Z"/>
        <path class="cls-2" d="M682.41,673.42l.21.09c-.08-.01-.16-.03-.24-.04,0,0,.04-.05.04-.05Z"/>
        <path d="M635.48,520.92c.31,6.48.35,6.28-5.95,5.09-11.01-2.07-22.16-2.57-33.35-2.34-3.93.08-4.12-.02-3.04-3.65,4.02-13.47,8.98-26.49,18.91-36.94,1.72-1.81,3.66-3.36,5.71-4.79,1.87-1.31,3.26-1.16,4.76.76,3.97,5.07,6.75,10.74,8.72,16.8,2.63,8.14,3.69,16.57,4.24,25.07Z"/>
      </g>
    </g>
  </g>
</svg>