<?xml version="1.0" encoding="UTF-8"?>
<svg xmlns="http://www.w3.org/2000/svg" version="1.1" viewBox="0 0 1000 1000">
  <defs>
    <style>
      .cls-1 {
        fill: #fbfbfb;
      }
    </style>
  </defs>
  <!-- Generator: Adobe Illustrator 28.7.10, SVG Export Plug-In . SVG Version: 1.2.0 Build 236)  -->
  <g>
    <g id="Layer_1">
      <g>
        <path class="cls-1" d="M124.74,553.64c0-12.99-.32-26,.09-38.98.44-14.08,1.16-28.15,2.16-42.21.68-9.6,1.38-19.2,2.28-28.77,1.33-14.28,3.05-28.51,4.99-42.72,1.46-10.72,3.13-21.41,5-32.06,2.35-13.35,5.09-26.64,8.22-39.85,2.4-10.1,4.9-20.18,7.74-30.17,3-10.56,6.2-21.05,9.78-31.44,3.44-9.98,7.09-19.88,11.06-29.66,4.26-10.49,8.91-20.82,13.91-30.98,7.29-14.81,15.43-29.13,24.44-42.95,3.89-5.97,8-11.8,12.19-17.56,2.18-2.99,5.93-3.67,9.07-5.11,12.86-5.89,25.76-11.69,38.75-17.3,10.15-4.38,20.42-8.48,30.66-12.64,8.03-3.26,16.04-6.57,24.15-9.61,10.19-3.82,20.48-7.38,30.72-11.07,10.48-3.78,21.08-7.24,31.49-11.23,10.98-4.21,21.79-8.82,32.55-13.56,10.9-4.8,21.6-10.04,32.26-15.37,11.89-5.94,23.66-12.13,35.22-18.69,9.09-5.16,18.39-9.99,27.09-15.81.88-.59,1.66-.57,2.57-.03,15.27,9.07,30.61,18.04,45.83,27.21,17.5,10.54,34.86,21.32,51.97,32.49,14.81,9.67,29.56,19.42,43.85,29.84,15.21,11.09,30.36,22.27,43.4,35.96,8.91,9.35,16.43,19.83,23.94,30.29,15.58,21.7,30.26,44,44.7,66.47,13.98,21.74,27.64,43.68,41.1,65.75,11.71,19.22,23.21,38.56,34.43,58.07,7.83,13.62,15.34,27.41,22.5,41.4,3.76,7.35,2.64,14.62,1.09,22.05-2.18,10.42-5.07,20.66-8.11,30.85-3.18,10.69-6.67,21.28-9.82,31.98-2.66,9.05-5.68,17.99-8.2,27.09-3.46,12.47-6.28,25.1-9.54,37.61-3.17,12.13-5.37,24.47-6.86,36.94-1.75,14.61-2.87,29.27-2.42,43.98.42,13.48,1.46,26.93,4.1,40.2.45,2.25.36,4.41-.07,6.64-2.27,11.64-5.2,23.12-8.69,34.44-4.78,15.5-10.5,30.66-17.03,45.52-8.99,20.47-19.47,40.15-31.61,58.92-9.85,15.23-20.63,29.78-32.34,43.66-6.77,8.03-14.01,15.61-21.33,23.11-10.03,10.27-20.76,19.82-31.93,28.85-12.24,9.88-25.01,19.02-38.27,27.47-10.21,6.5-20.75,12.46-31.5,18.03-12.57,6.51-25.47,12.29-38.55,17.7-4.9,2.02-10.01,3.49-14.78,5.86-.89.44-2.03.42-3.1-.45-15.86-12.89-31.75-25.74-47.66-38.56-15.84-12.77-31.68-25.55-47.59-38.24-24.84-19.81-49.75-39.54-74.61-59.32-21.17-16.84-42.48-33.5-63.96-49.94-3.13-2.4-6.37-4.67-9.4-7.19-2.79-2.32-6.19-2.93-9.49-3.69-12.62-2.93-25.28-5.68-37.92-8.52-14.24-3.2-28.48-6.39-42.71-9.62-7.61-1.73-15.21-3.56-22.82-5.29-7.7-1.74-15.42-3.39-23.13-5.12-6.95-1.56-13.89-3.15-20.83-4.74-7.44-1.71-14.87-3.5-22.33-5.11-2.06-.44-3.17-1.26-3.46-3.43-1.75-13.45-3.62-26.89-5.17-40.37-1.48-12.88-2.44-25.82-3.85-38.7-.83-7.51-1.23-15.07-1.67-22.62-.89-15.18-1.86-30.36-2.44-45.55-.4-10.66-.2-21.34-.25-32.01-.02-4.04,0-8.09,0-12.13h.13ZM842.89,417.24c0-1.46.04-2.93,0-4.39-.2-7.19-2.64-12.97-9.59-16.33-2.99-1.44-5.7-3.51-8.39-5.49-11.72-8.64-22.33-18.55-32.64-28.81-15.8-15.72-30.48-32.45-45.1-49.24-9.49-10.9-19.68-21.14-30.23-31.03-10.66-10.01-21.79-19.45-33.2-28.58-17.85-14.27-36.45-27.5-55.65-39.89-1.56-1.01-2.89-1.09-4.53-.19-9.48,5.19-18.96,10.41-28.53,15.44-14.44,7.58-29.04,14.84-43.89,21.59-8.43,3.83-16.92,7.54-25.53,10.98-12.21,4.87-24.48,9.63-37.35,12.33-10.03,2.1-19,6.3-27.64,11.51-16.2,9.76-30.61,21.82-44.33,34.73-11.78,11.09-22.87,22.83-33.36,35.17-12.88,15.13-24.77,31-35.71,47.56-12.56,18.99-23.75,38.8-33.67,59.3-6.62,13.67-12.55,27.64-17.89,41.85-4.14,11-7.72,22.19-11.08,33.46-3.76,12.6-6.96,25.33-9.6,38.18-2.76,13.45-4.92,27.01-6.57,40.66-1.73,14.35-2.74,28.74-3.29,43.15-.52,13.58-.24,27.17.42,40.75.1,2.02,1.18,2.92,2.72,3.63,2.88,1.34,5.75,2.68,8.66,3.95,8.41,3.67,16.99,6.9,25.75,9.65,7.61,2.39,15.27,4.55,23.05,6.36,9.7,2.26,19.44,4.29,29.33,5.47,2.51.3,4.8.81,6.76,2.7,2.53,2.44,5.4,4.51,8.08,6.8,15.03,12.81,30.42,25.19,45.73,37.66,19.77,16.11,39.55,32.22,59.31,48.33,14.51,11.83,29,23.69,43.52,35.51,14.38,11.71,28.79,23.39,43.18,35.1,11.19,9.1,22.36,18.22,33.53,27.36,1.19.97,2.15,1.07,3.69.39,10.69-4.72,21.03-10.13,31.25-15.73,16.12-8.83,31.72-18.54,46.76-29.14,15.82-11.16,30.89-23.26,44.87-36.65,12.75-12.22,24.21-25.55,34.26-40.11,12.04-17.44,20.27-36.56,25.83-56.92,2.31-8.45,4.55-16.9,6.47-25.45,1.9-8.46,3.59-16.97,4.9-25.54,2.08-13.66,3.68-27.39,4.95-41.17,1.42-15.39,2.35-30.83,3.82-46.21,1.21-12.57,2.34-25.12,4.51-37.58.56-3.2,1.29-6.39,1.68-9.6.42-3.51,1.32-6.92,2.13-10.29,1.51-6.3,3.1-12.6,5.14-18.77,2.93-8.88,5.64-17.83,8.32-26.78,3.24-10.85,6.49-21.7,9.49-32.62,2.52-9.18,4.76-18.43,6.59-27.79,1.64-8.36,3.02-16.73,3.07-25.27Z"/>
        <path class="cls-1" d="M481.41,591.6c-.06-3.25,1-5.71,1.59-8.19,3.06-12.87,6.88-25.54,11.6-37.89,9.35-24.48,21.44-47.4,39.54-66.71,11.67-12.45,25.15-22.38,41.06-28.72,13.07-5.21,26.58-7.2,40.69-5.17,8.37,1.2,16.56,2.72,24.44,5.93,13.3,5.43,23.35,14.51,30.95,26.56,6.84,10.85,11.17,22.74,14.92,34.91,7.75,25.15,10.17,51.01,10.65,77.15.1,5.25-.01,10.49-.03,15.74,0,1.62-.08,3.23-.93,5.07-1.39-3.26-1.73-6.51-2.5-9.63-2.33-9.51-4.58-19.04-6.84-28.57-2.1-8.86-4.17-17.73-6.27-26.59-.18-.78.04-2.1-1-2.07-1,.03-.83,1.33-.95,2.13-1.92,12.26-5.29,24.12-9.63,35.75-2.67,7.17-5.73,14.15-9.03,21.04-.28.58-.28,1.63-1.12,1.48-.89-.17-.82-1.22-.84-1.96-.09-3.27-.58-6.51-.88-9.76-1.12-12.36-3.6-24.47-6.31-36.55-.13-.58-.1-1.37-.84-1.42-.91-.05-1.26.82-1.56,1.5-1.63,3.68-3.11,7.44-4.84,11.08-3.06,6.45-1.03,6.04-8.87,5.88-16.45-.32-32.77-2.3-49.09-4.16-1.97-.23-3.94-.51-5.91-.54-2-.03-2.7-1.04-2.91-2.83-.52-4.44-1.11-8.88-1.67-13.31-.08-.6-.16-1.2-.3-1.78-.12-.5-.33-1.04-.93-1.09-.62-.05-.86.46-1.06.95-1.98,4.66-3.95,9.32-5.95,13.97-4.21,9.77-8.43,19.52-12.64,29.28-.75,1.73-1.47,3.48-2.17,5.23-.29.72-.45,1.59-1.45,1.55-.8-.03-1.08-.73-1.34-1.39-3.16-7.87-4.86-16.1-5.97-24.46-1.91-14.35-2.59-28.78-2.75-43.24,0-.66.19-1.49-.56-1.85-.99-.47-1.59.42-2.23.9-9.85,7.46-18.48,16.22-26.7,25.39-10.05,11.21-19.34,23.03-28.23,35.18-.19.26-.43.47-1.1,1.2ZM635.48,520.92c-.55-8.5-1.6-16.93-4.24-25.07-1.96-6.06-4.75-11.73-8.72-16.8-1.5-1.92-2.89-2.07-4.76-.76-2.05,1.43-3.99,2.98-5.71,4.79-9.93,10.46-14.89,23.47-18.91,36.94-1.08,3.63-.89,3.73,3.04,3.65,11.19-.22,22.34.27,33.35,2.34,6.3,1.18,6.26,1.38,5.95-5.09Z"/>
        <path class="cls-1" d="M625.62,414.41c-15.22-.26-28.47-2.59-41.06-7.8-7.75-3.21-15.23-7.08-22.82-10.69-9.46-4.5-19.19-8.29-29.21-11.36-6.5-1.99-12.99-3.98-19.7-5.03-10.16-1.59-20.25-1.89-29.64,3.36-7.57,4.23-12.05,10.77-14.12,19.1-.28,1.11,0,2.86-1.32,3.12-1.69.34-1.78-1.64-2.28-2.66-3.85-7.83-4.43-16.24-3.42-24.69,1.63-13.58,7.14-25.21,18.45-33.54,6.52-4.8,13.91-7.39,21.91-8.23,12.06-1.26,24.07-.83,35.94,1.7,8.58,1.82,16.85,4.69,25.01,7.88,13.74,5.37,27.41,11.01,42.02,13.64,12.75,2.3,25.46,2.09,38.18-.63,11.79-2.52,23.09-6.6,34.52-10.29,7.02-2.26,14.03-4.78,21.31-5.95,14.81-2.39,25.21,1.56,33.28,16.07,5.48,9.85,9.33,20.44,11.36,31.6,1,5.53.12,10.8-3.15,15.49-1.46,2.09-2.11,1.97-3.43-.2-3.1-5.1-7.84-8.18-13.29-10.07-11.94-4.14-24.14-4.39-36.34-1.4-6.76,1.66-13.03,4.74-19.25,7.86-8.36,4.19-16.72,8.44-25.88,10.62-6.11,1.46-12.33,2.43-17.07,2.11Z"/>
        <path class="cls-1" d="M661.36,671.72c.89-1.11,1.05-2.5,1.51-3.77.05.12.1.24.15.36.05-.05.13-.1.15-.17.49-1.54.98-3.08,1.46-4.62.27-.86.54-1.71.81-2.56-.07.27,0,.34.22.19.06-.04.11-.13.12-.2.09-.53.83-.9.39-1.55.27-.89.54-1.78.81-2.67-.11.26-.04.36.2.27.06-.02.12-.12.13-.19.1-.69,1.06-1.17.5-2.02.24-.91.47-1.82.71-2.72-.12.25-.05.36.19.29.06-.02.12-.11.14-.18.23-.65.76-1.23.47-2,.24-.9.47-1.81.71-2.7,0,.09.01.24-.02.25-.32.12.04.32.23.05.18-.26.67-.53.23-.96-.09.12-.18.24-.28.36.26-.81.52-1.62.78-2.43.12.02.25.05.38.07-.13-.04-.25-.08-.38-.11.17-.81.35-1.62.52-2.42,0,.09.04.23.02.23-.32.13,0,.34.19.07.26-.36.47-.78.56-1.21.04-.2-.25-.35-.41-.02.22-.76.45-1.52.67-2.28.12.02.25.04.38.05-.13-.03-.25-.06-.38-.1.21-.82.42-1.65.63-2.47-.02.09-.02.22-.06.23-.33.1-.03.37.16.11.26-.35.49-.77.57-1.2.04-.21-.26-.35-.39.02.55-1.19.67-2.46.78-3.73-.1.26-.05.34.15.23.05-.03.1-.12.1-.18,0-1.38,1.44-2.54.64-4.04.47-1.44.48-2.94.52-4.42,1.77.07,2.31,1.4,2.82,2.75.19,1.6.39,3.21.58,4.8-.07-.06-.14-.1-.21-.15-.03.06-.1.13-.09.18.29,2.52.6,5.04,1.31,7.49.16,2.32.31,4.64.47,6.95-.08-.03-.17-.05-.25-.07-.01.07-.04.14-.04.21.29,6.78.27,13.55.13,20.33-.02,1.07-.46,2.19.15,3.24-.27,1.91-.54,3.83-.39,5.76-.01-.26-.13-.33-.32-.18-.05.04-.08.16-.06.22.16.52-.3,1.2.32,1.57.17.1.69-.09.83-.3.23-.33-.02-.6-.41-.67,1.3-.17,1.41-1.36,1.92-2.21.08.02.16.03.24.04l-.21-.09c1.84-2.81,3.8-5.55,5.14-8.66.08.03.16.07.25.1-.07-.06-.14-.12-.21-.18.38-.57.75-1.13,1.13-1.69,0,.09,0,.18,0,.26.11-.1.26-.19.33-.32.98-1.71,1.94-3.43,1.92-5.49.22-.86.44-1.72.67-2.58.09.36.29.28.38.04.05-.15,0-.48-.34-.27.15-1.06.3-2.12.46-3.17.07.12.15.24.22.35.05-.05.13-.09.14-.14.18-1.18.94-2.33.25-3.57.52-1.93.5-3.9.5-5.86-.04.28.04.36.22.22.05-.04.07-.13.08-.2.09-.71-.29-1.76.8-1.85.95-.08,1.07.92,1.34,1.63.04.12-.1.82.37.2.15,1.27.31,2.53.46,3.79-.08-.02-.16-.04-.25-.05,0,.08-.02.17,0,.25.35,2.15.71,4.31,1.08,6.46,0,.03.2.03.31.04,0-.08.01-.17.02-.25.09,1.42.18,2.84.27,4.26-.07,2.81-.13,5.64-.2,8.46-.06,1.44-.13,2.88-.19,4.31.03-.28-.07-.36-.28-.21-.04.03-.02.15-.03.23-.32,1.6-.57,3.21-.97,4.79-1.34,5.23-3.38,9.96-7.8,13.55-8.16,6.62-17.95,9.21-27.81,11.38-12.19,2.69-24.64,3.75-37.12,3.88-15.05.16-30.06-.63-45.08-1.79-15.09-1.16-30.07-2.8-44.86-6.16-7.89-1.79-15.6-3.95-22.92-7.43-12.34-5.87-23.74-13.06-32.93-23.37-9.4-10.54-14.09-22.6-12-36.9.47-3.24,1.16-6.42,2.18-9.51,1.43-4.32,3.24-8.48,5.52-12.43.34-.58.68-1.3,1.56-.97.7.27.63.94.61,1.54-.26,7.61.8,15.08,2.75,22.4.78,2.94,1.33,6.27,3.68,8.39,8.81,7.93,17.81,15.65,26.69,23.5,1.25,1.1,1.74.65,2.11-.62.82-2.79,1.69-5.58,2.41-8.4,2.23-8.65,5.23-17.03,8.52-25.33.65-1.65,2.21-3.11,1.57-5.18.39-.49.77-.99,1.16-1.48-.03.08-.06.22-.07.22-.34-.04-.13.36.14.16.24-.18.75-.41.17-.81.56-1.1,1.11-2.2,1.67-3.3.08,0,.16.01.24.02-.07-.02-.15-.05-.22-.07.87-1.55,1.73-3.1,2.6-4.65.08.02.17.04.25.06-.07-.04-.13-.07-.2-.11.77-1.17,1.54-2.34,2.3-3.5.46.48.92.95,1.39,1.42,0,1.24.02,2.48.02,3.71-.09-.02-.17-.02-.26-.02,0,.08.02.16.02.25.03,1.54.02,3.08.1,4.61.02.44.26.19.36-.02.03-.07,0-.17,0-.25.12,1.38.24,2.76.36,4.14-.08-.05-.15-.08-.23-.12-.03.06-.08.12-.08.17.2,2.2.4,4.4.6,6.6.11-.02.23-.01.32-.07.04-.03.02-.16.02-.25.13,1.69.25,3.38.37,5.06-.08-.03-.16-.05-.24-.08,0,.07-.02.15-.02.22.25,2.64.34,5.32,1.38,7.82.17,1.47.34,2.93.51,4.39-.07-.06-.13-.12-.2-.17-.03.07-.11.14-.1.19.24,1.55.27,3.16,1.26,4.5.19,1.23.39,2.47.58,3.69-.15-.23-.25-.23-.3,0-.02.08-.04.17-.01.24.36,1.09.42,2.31,1.23,3.23.26,1.1.52,2.19.77,3.28-.1-.07-.21-.13-.31-.18-.03.06-.11.15-.09.19.38.81.78,1.62,1.17,2.42.3.92.6,1.84.9,2.75-.11-.11-.29-.31-.3-.31-.38.33,0,.63.15.79.28.31.39.11.31-.23.36.95.72,1.9,1.09,2.85-.05.08-.09.15-.14.23.05-.05.11-.1.16-.15.46.78,1.1,1.29,2.03,1.34-.08.01-.18,0-.22.05-.04.04-.02.2-.01.2.3.05.66.4.82-.17.96.12,1.91.23,2.86.35-.19.04-.49-.04-.36.33.02.05.15.08.23.07.97-.18,1.85,1.04,2.85.17,1.09.17,2.17.34,3.26.52-.09,0-.23.04-.24.02-.11-.33-.4.07-.09.19.39.16.89.47,1.23-.14,1.02.12,2.04.25,3.05.37-.17.1-.33.2-.49.29.07.04.15.12.21.11,1.13-.09,2.2,1.09,3.37.17,1.54.48,3.12.58,4.71.57-.08.02-.18.03-.22.08-.03.04,0,.14,0,.22.28-.03.72.41.8-.26.99.12,1.98.25,2.96.37-.16.1-.32.2-.47.31.07.04.15.1.22.11,1.46.08,2.88.97,4.39.27,1.62.16,3.24.31,4.85.47-.27-.04-.35.05-.24.23.03.05.12.08.19.08,3.07-.09,5.99,1.49,9.12.78,1.81.15,3.61.3,5.41.44-.09,0-.19,0-.26.03-.03.01,0,.19,0,.19,3.96.28,7.85,1.47,11.88.93,2.03.11,4.05.22,6.07.34-.22.02-.5,0-.25.34.03.04.16.02.25.01,2.99-.24,5.94,1.14,8.94.25,1.11.11,2.23.22,3.33.32-.18.15-.69-.25-.56.34,0,.03.14.06.22.06,2.43-.21,4.87.38,7.28-.14,5.84.11,11.69.22,17.52.33-.23.01-.47,0-.36.34.01.03.16.03.24.03,3.13-.01,6.26-.01,9.38-.04.69,0,1.43.04,1.95-.59.35-.33.71-.65,1.06-.98.14.05.27.1.41.15-.14-.04-.29-.09-.43-.13.43-1.01.85-2.02,1.28-3.02-.06.23-.17.53.23.2.06-.05.07-.16.08-.24.09-.99,1.02-1.77.75-2.86Z"/>
      </g>
    </g>
  </g>
</svg>